<svg xmlns="http://www.w3.org/2000/svg" xmlns:xlink="http://www.w3.org/1999/xlink" width="500" zoomAndPan="magnify" viewBox="0 0 375 149.999998" height="200" preserveAspectRatio="xMidYMid meet" version="1.0"><defs><g/></defs><g fill="#2b2b2b" fill-opacity="1"><g transform="translate(166.407614, 141.217672)"><g><path d="M 12.410156 0 L 76.644531 0 L 77.460938 -12 C 61.367188 -11.863281 43.777344 -11.457031 27.273438 -11.457031 C 27.003906 -24.546875 26.867188 -39.277344 26.867188 -53.457031 C 26.867188 -69.824219 27.003906 -86.734375 27.273438 -104.054688 L 12.410156 -104.054688 C 12.546875 -86.597656 12.820312 -68.871094 12.820312 -51.957031 C 12.820312 -35.046875 12.546875 -17.320312 12.410156 0 Z M 12.410156 0 "/></g></g></g><g fill="#2b2b2b" fill-opacity="1"><g transform="translate(130.468233, 114.349456)"><g><path d="M 12.410156 0 L 76.644531 0 L 77.460938 -12 C 61.367188 -11.863281 43.777344 -11.457031 27.273438 -11.457031 C 27.003906 -24.546875 26.867188 -39.277344 26.867188 -53.457031 C 26.867188 -69.824219 27.003906 -86.734375 27.273438 -104.054688 L 12.410156 -104.054688 C 12.546875 -86.597656 12.820312 -68.871094 12.820312 -51.957031 C 12.820312 -35.046875 12.546875 -17.320312 12.410156 0 Z M 12.410156 0 "/></g></g></g><path fill="#ffffff" d="M 125.925781 70.011719 L 249.292969 70.011719 L 249.292969 89.707031 L 125.925781 89.707031 L 125.925781 70.011719 " fill-opacity="1" fill-rule="nonzero"/><g fill="#2b2b2b" fill-opacity="1"><g transform="translate(132.673757, 84.808316)"><g><path d="M 1.28125 0 L 5.386719 0 C 8.578125 -0.0546875 10.140625 -1.882812 10.140625 -5.386719 C 10.140625 -9.453125 8.242188 -10.730469 4.597656 -10.730469 L 1.28125 -10.730469 C 1.308594 -9.382812 1.335938 -6.820312 1.335938 -5.34375 C 1.335938 -3.882812 1.308594 -1.421875 1.28125 0 Z M 2.769531 -1.070312 L 2.769531 -9.664062 L 4.769531 -9.664062 C 7.621094 -9.664062 8.664062 -8.398438 8.664062 -5.332031 C 8.664062 -2.390625 7.496094 -1.070312 4.851562 -1.070312 Z M 2.769531 -1.070312 "/></g></g></g><g fill="#2b2b2b" fill-opacity="1"><g transform="translate(145.7124, 84.808316)"><g><path d="M 1.28125 0 L 9.015625 0 L 9.015625 -1.140625 L 2.785156 -1.140625 L 2.785156 -4.878906 L 8.539062 -4.839844 L 8.539062 -5.964844 L 2.785156 -5.921875 L 2.785156 -9.59375 L 8.917969 -9.59375 L 8.917969 -10.730469 L 1.28125 -10.730469 C 1.320312 -9.480469 1.351562 -6.847656 1.351562 -5.34375 C 1.351562 -3.894531 1.320312 -1.222656 1.28125 0 Z M 1.28125 0 "/></g></g></g><g fill="#2b2b2b" fill-opacity="1"><g transform="translate(157.625871, 84.808316)"><g><path d="M 5.441406 0.183594 C 8.15625 0.183594 9.773438 -0.929688 9.816406 -3.726562 L 9.816406 -7.355469 C 9.816406 -8.550781 9.816406 -9.664062 9.832031 -10.730469 L 8.328125 -10.730469 C 8.367188 -9.242188 8.382812 -6.203125 8.382812 -4.527344 C 8.382812 -3.191406 8.242188 -2.617188 7.863281 -1.757812 C 7.382812 -1.195312 6.582031 -0.914062 5.582031 -0.914062 C 3.402344 -0.914062 2.742188 -2.335938 2.742188 -4.558594 C 2.742188 -6.160156 2.757812 -9.324219 2.769531 -10.730469 L 1.28125 -10.730469 C 1.292969 -9.789062 1.308594 -8.761719 1.308594 -7.609375 L 1.308594 -4.613281 C 1.308594 -1.503906 2.136719 0.183594 5.441406 0.183594 Z M 5.441406 0.183594 "/></g></g></g><g fill="#2b2b2b" fill-opacity="1"><g transform="translate(170.945801, 84.808316)"><g><path d="M 0.324219 0 L 2.011719 0 L 5.121094 -4.921875 L 5.371094 -4.921875 L 8.480469 0 L 10.167969 0 C 9.410156 -1.097656 8.101562 -3.09375 7.117188 -4.65625 C 6.878906 -5.050781 6.441406 -5.441406 5.921875 -5.441406 L 5.921875 -5.597656 C 6.46875 -5.613281 6.847656 -5.921875 7.089844 -6.316406 C 8.074219 -7.847656 9.085938 -9.394531 9.859375 -10.730469 L 8.1875 -10.730469 L 5.371094 -6.0625 L 5.121094 -6.0625 L 2.304688 -10.730469 L 0.617188 -10.730469 C 1.421875 -9.410156 2.417969 -7.835938 3.417969 -6.300781 C 3.628906 -5.949219 4.050781 -5.597656 4.585938 -5.597656 L 4.585938 -5.441406 C 4.066406 -5.441406 3.585938 -5.007812 3.390625 -4.710938 C 2.277344 -3.039062 1.140625 -1.308594 0.324219 0 Z M 0.324219 0 "/></g></g></g><g fill="#2b2b2b" fill-opacity="1"><g transform="translate(183.646898, 84.808316)"><g><path d="M 0.632812 -5.21875 L 0.632812 -4.402344 L 5.261719 -4.402344 L 5.261719 -5.21875 Z M 0.632812 -5.21875 "/></g></g></g><g fill="#2b2b2b" fill-opacity="1"><g transform="translate(191.734803, 84.808316)"><g><path d="M 10 0 C 8.902344 -3.082031 7.117188 -8.03125 6.214844 -10.730469 L 3.855469 -10.730469 C 2.996094 -8.058594 1.109375 -2.910156 0.0976562 0 L 1.671875 0 C 1.996094 -0.898438 2.335938 -1.882812 2.699219 -2.925781 C 3.390625 -2.941406 4.164062 -2.941406 5.035156 -2.941406 C 5.597656 -2.941406 6.527344 -2.925781 7.453125 -2.925781 C 7.847656 -1.84375 8.199219 -0.828125 8.4375 0 Z M 3.011719 -3.855469 C 3.628906 -5.683594 4.289062 -7.691406 4.992188 -9.804688 L 5.0625 -9.804688 C 5.527344 -8.15625 6.355469 -5.933594 7.117188 -3.855469 Z M 3.011719 -3.855469 "/></g></g></g><g fill="#2b2b2b" fill-opacity="1"><g transform="translate(204.042091, 84.808316)"><g><path d="M 1.28125 0 L 2.800781 0 C 2.757812 -1.785156 2.742188 -3.574219 2.742188 -5.371094 C 2.742188 -7.160156 2.757812 -8.945312 2.800781 -10.730469 L 1.28125 -10.730469 C 1.308594 -8.929688 1.320312 -7.160156 1.320312 -5.359375 C 1.320312 -3.574219 1.308594 -1.785156 1.28125 0 Z M 1.28125 0 "/></g></g></g><g fill="#2b2b2b" fill-opacity="1"><g transform="translate(210.329727, 84.808316)"><g><path d="M 1.28125 0 L 7.90625 0 L 7.988281 -1.238281 C 6.328125 -1.222656 4.515625 -1.179688 2.8125 -1.179688 C 2.785156 -2.53125 2.769531 -4.050781 2.769531 -5.511719 C 2.769531 -7.199219 2.785156 -8.945312 2.8125 -10.730469 L 1.28125 -10.730469 C 1.292969 -8.929688 1.320312 -7.101562 1.320312 -5.359375 C 1.320312 -3.613281 1.292969 -1.785156 1.28125 0 Z M 1.28125 0 "/></g></g></g><g fill="#2b2b2b" fill-opacity="1"><g transform="translate(220.625778, 84.808316)"><g><path d="M 1.28125 0 L 9.015625 0 L 9.015625 -1.140625 L 2.785156 -1.140625 L 2.785156 -4.878906 L 8.539062 -4.839844 L 8.539062 -5.964844 L 2.785156 -5.921875 L 2.785156 -9.59375 L 8.917969 -9.59375 L 8.917969 -10.730469 L 1.28125 -10.730469 C 1.320312 -9.480469 1.351562 -6.847656 1.351562 -5.34375 C 1.351562 -3.894531 1.320312 -1.222656 1.28125 0 Z M 1.28125 0 "/></g></g></g><g fill="#2b2b2b" fill-opacity="1"><g transform="translate(232.539251, 84.808316)"><g><path d="M 5.175781 0.167969 C 7.707031 0.167969 9.351562 -0.957031 9.382812 -2.898438 C 9.410156 -4.570312 8.523438 -5.554688 5.261719 -5.933594 C 3.25 -6.285156 2.460938 -6.609375 2.460938 -7.835938 C 2.460938 -8.496094 2.785156 -9.042969 3.222656 -9.394531 C 3.628906 -9.664062 4.347656 -9.761719 5.019531 -9.761719 C 6.960938 -9.761719 7.511719 -8.875 7.863281 -7.480469 L 9.296875 -7.636719 C 8.890625 -9.691406 7.734375 -10.871094 5.105469 -10.871094 C 2.742188 -10.871094 1 -9.929688 1 -7.933594 C 1 -6.105469 2.390625 -5.132812 5.019531 -4.878906 C 7.285156 -4.542969 7.945312 -4.050781 7.933594 -2.953125 C 7.917969 -2.347656 7.707031 -1.828125 7.339844 -1.433594 C 6.90625 -1.070312 6.105469 -0.914062 5.203125 -0.914062 C 3.207031 -0.914062 2.503906 -1.871094 2.25 -3.234375 L 0.675781 -3.121094 C 0.957031 -0.914062 2.292969 0.167969 5.175781 0.167969 Z M 5.175781 0.167969 "/></g></g></g></svg>